<svg width="234" height="52" viewBox="0 0 234 52" fill="none" xmlns="http://www.w3.org/2000/svg">
<rect x="0.5" width="233" height="52" rx="26" fill="white"/>
<path d="M43.7298 20.832L39.6338 32H36.9138L32.8178 20.832H35.2178L38.2898 29.712L41.3458 20.832H43.7298ZM44.4967 27.536C44.4967 26.64 44.6727 25.8453 45.0247 25.152C45.3874 24.4587 45.8728 23.9253 46.4808 23.552C47.0994 23.1787 47.7874 22.992 48.5448 22.992C49.2061 22.992 49.7821 23.1253 50.2728 23.392C50.7741 23.6587 51.1741 23.9947 51.4728 24.4V23.136H53.7288V32H51.4728V30.704C51.1848 31.12 50.7848 31.4667 50.2728 31.744C49.7714 32.0107 49.1901 32.144 48.5288 32.144C47.7821 32.144 47.0994 31.952 46.4808 31.568C45.8728 31.184 45.3874 30.6453 45.0247 29.952C44.6727 29.248 44.4967 28.4427 44.4967 27.536ZM51.4728 27.568C51.4728 27.024 51.3661 26.56 51.1528 26.176C50.9394 25.7813 50.6514 25.4827 50.2888 25.28C49.9261 25.0667 49.5368 24.96 49.1208 24.96C48.7048 24.96 48.3208 25.0613 47.9688 25.264C47.6168 25.4667 47.3288 25.7653 47.1048 26.16C46.8914 26.544 46.7848 27.0027 46.7848 27.536C46.7848 28.0693 46.8914 28.5387 47.1048 28.944C47.3288 29.3387 47.6168 29.6427 47.9688 29.856C48.3314 30.0693 48.7154 30.176 49.1208 30.176C49.5368 30.176 49.9261 30.0747 50.2888 29.872C50.6514 29.6587 50.9394 29.36 51.1528 28.976C51.3661 28.5813 51.4728 28.112 51.4728 27.568ZM51.2968 20.528C51.2968 21.0827 51.1154 21.5307 50.7528 21.872C50.4008 22.2027 49.9581 22.368 49.4248 22.368C48.9021 22.368 48.4594 22.2027 48.0968 21.872C47.7341 21.5307 47.5528 21.0827 47.5528 20.528C47.5528 19.9733 47.7341 19.5307 48.0968 19.2C48.4594 18.8587 48.9021 18.688 49.4248 18.688C49.9581 18.688 50.4008 18.8587 50.7528 19.2C51.1154 19.5307 51.2968 19.9733 51.2968 20.528ZM50.1928 20.528C50.1928 20.2827 50.1181 20.0907 49.9688 19.952C49.8194 19.8027 49.6381 19.728 49.4248 19.728C49.2114 19.728 49.0301 19.8027 48.8808 19.952C48.7314 20.0907 48.6568 20.2827 48.6568 20.528C48.6568 20.752 48.7314 20.944 48.8808 21.104C49.0301 21.2533 49.2114 21.328 49.4248 21.328C49.6381 21.328 49.8194 21.2533 49.9688 21.104C50.1181 20.944 50.1928 20.752 50.1928 20.528ZM58.1565 24.512C58.4445 24.0427 58.8178 23.6747 59.2765 23.408C59.7458 23.1413 60.2792 23.008 60.8765 23.008V25.36H60.2845C59.5805 25.36 59.0472 25.5253 58.6845 25.856C58.3325 26.1867 58.1565 26.7627 58.1565 27.584V32H55.9165V23.136H58.1565V24.512ZM64.9933 24.976V29.264C64.9933 29.5627 65.0626 29.7813 65.2013 29.92C65.3506 30.048 65.5959 30.112 65.9373 30.112H66.9773V32H65.5693C63.6813 32 62.7373 31.0827 62.7373 29.248V24.976H61.6813V23.136H62.7373V20.944H64.9933V23.136H66.9773V24.976H64.9933ZM77.3929 23.008C78.0649 23.008 78.6622 23.1573 79.1849 23.456C79.7075 23.744 80.1129 24.176 80.4009 24.752C80.6995 25.3173 80.8489 26 80.8489 26.8V32H78.6089V27.104C78.6089 26.4 78.4329 25.8613 78.0809 25.488C77.7289 25.104 77.2489 24.912 76.6409 24.912C76.0222 24.912 75.5315 25.104 75.1689 25.488C74.8169 25.8613 74.6409 26.4 74.6409 27.104V32H72.4009V20.16H74.6409V24.24C74.9289 23.856 75.3129 23.5573 75.7929 23.344C76.2729 23.12 76.8062 23.008 77.3929 23.008ZM82.403 27.536C82.403 26.64 82.579 25.8453 82.931 25.152C83.2937 24.4587 83.779 23.9253 84.387 23.552C85.0057 23.1787 85.6937 22.992 86.451 22.992C87.1123 22.992 87.6883 23.1253 88.179 23.392C88.6803 23.6587 89.0803 23.9947 89.379 24.4V23.136H91.635V32H89.379V30.704C89.091 31.12 88.691 31.4667 88.179 31.744C87.6777 32.0107 87.0963 32.144 86.435 32.144C85.6883 32.144 85.0057 31.952 84.387 31.568C83.779 31.184 83.2937 30.6453 82.931 29.952C82.579 29.248 82.403 28.4427 82.403 27.536ZM89.379 27.568C89.379 27.024 89.2723 26.56 89.059 26.176C88.8457 25.7813 88.5577 25.4827 88.195 25.28C87.8323 25.0667 87.443 24.96 87.027 24.96C86.611 24.96 86.227 25.0613 85.875 25.264C85.523 25.4667 85.235 25.7653 85.011 26.16C84.7977 26.544 84.691 27.0027 84.691 27.536C84.691 28.0693 84.7977 28.5387 85.011 28.944C85.235 29.3387 85.523 29.6427 85.875 29.856C86.2377 30.0693 86.6217 30.176 87.027 30.176C87.443 30.176 87.8323 30.0747 88.195 29.872C88.5577 29.6587 88.8457 29.36 89.059 28.976C89.2723 28.5813 89.379 28.112 89.379 27.568ZM89.203 20.528C89.203 21.0827 89.0217 21.5307 88.659 21.872C88.307 22.2027 87.8643 22.368 87.331 22.368C86.8083 22.368 86.3657 22.2027 86.003 21.872C85.6403 21.5307 85.459 21.0827 85.459 20.528C85.459 19.9733 85.6403 19.5307 86.003 19.2C86.3657 18.8587 86.8083 18.688 87.331 18.688C87.8643 18.688 88.307 18.8587 88.659 19.2C89.0217 19.5307 89.203 19.9733 89.203 20.528ZM88.099 20.528C88.099 20.2827 88.0243 20.0907 87.875 19.952C87.7257 19.8027 87.5443 19.728 87.331 19.728C87.1177 19.728 86.9363 19.8027 86.787 19.952C86.6377 20.0907 86.563 20.2827 86.563 20.528C86.563 20.752 86.6377 20.944 86.787 21.104C86.9363 21.2533 87.1177 21.328 87.331 21.328C87.5443 21.328 87.7257 21.2533 87.875 21.104C88.0243 20.944 88.099 20.752 88.099 20.528ZM96.0628 20.16V32H93.8228V20.16H96.0628ZM100.516 20.16V32H98.2759V20.16H100.516ZM104.969 24.432C105.257 24.0053 105.652 23.6587 106.153 23.392C106.665 23.1253 107.246 22.992 107.897 22.992C108.654 22.992 109.337 23.1787 109.945 23.552C110.564 23.9253 111.049 24.4587 111.401 25.152C111.764 25.8347 111.945 26.6293 111.945 27.536C111.945 28.4427 111.764 29.248 111.401 29.952C111.049 30.6453 110.564 31.184 109.945 31.568C109.337 31.952 108.654 32.144 107.897 32.144C107.236 32.144 106.654 32.016 106.153 31.76C105.662 31.4933 105.268 31.152 104.969 30.736V32H102.729V20.16H104.969V24.432ZM109.657 27.536C109.657 27.0027 109.545 26.544 109.321 26.16C109.108 25.7653 108.82 25.4667 108.457 25.264C108.105 25.0613 107.721 24.96 107.305 24.96C106.9 24.96 106.516 25.0667 106.153 25.28C105.801 25.4827 105.513 25.7813 105.289 26.176C105.076 26.5707 104.969 27.0347 104.969 27.568C104.969 28.1013 105.076 28.5653 105.289 28.96C105.513 29.3547 105.801 29.6587 106.153 29.872C106.516 30.0747 106.9 30.176 107.305 30.176C107.721 30.176 108.105 30.0693 108.457 29.856C108.82 29.6427 109.108 29.3387 109.321 28.944C109.545 28.5493 109.657 28.08 109.657 27.536ZM112.997 27.536C112.997 26.64 113.173 25.8453 113.525 25.152C113.887 24.4587 114.373 23.9253 114.981 23.552C115.599 23.1787 116.287 22.992 117.045 22.992C117.706 22.992 118.282 23.1253 118.773 23.392C119.274 23.6587 119.674 23.9947 119.973 24.4V23.136H122.229V32H119.973V30.704C119.685 31.12 119.285 31.4667 118.773 31.744C118.271 32.0107 117.69 32.144 117.029 32.144C116.282 32.144 115.599 31.952 114.981 31.568C114.373 31.184 113.887 30.6453 113.525 29.952C113.173 29.248 112.997 28.4427 112.997 27.536ZM119.973 27.568C119.973 27.024 119.866 26.56 119.653 26.176C119.439 25.7813 119.151 25.4827 118.789 25.28C118.426 25.0667 118.037 24.96 117.621 24.96C117.205 24.96 116.821 25.0613 116.469 25.264C116.117 25.4667 115.829 25.7653 115.605 26.16C115.391 26.544 115.285 27.0027 115.285 27.536C115.285 28.0693 115.391 28.5387 115.605 28.944C115.829 29.3387 116.117 29.6427 116.469 29.856C116.831 30.0693 117.215 30.176 117.621 30.176C118.037 30.176 118.426 30.0747 118.789 29.872C119.151 29.6587 119.439 29.36 119.653 28.976C119.866 28.5813 119.973 28.112 119.973 27.568ZM126.657 24.512C126.945 24.0427 127.318 23.6747 127.777 23.408C128.246 23.1413 128.779 23.008 129.377 23.008V25.36H128.785C128.081 25.36 127.547 25.5253 127.185 25.856C126.833 26.1867 126.657 26.7627 126.657 27.584V32H124.417V23.136H126.657V24.512ZM135.877 23.008C136.549 23.008 137.147 23.1573 137.669 23.456C138.192 23.744 138.597 24.176 138.885 24.752C139.184 25.3173 139.333 26 139.333 26.8V32H137.093V27.104C137.093 26.4 136.917 25.8613 136.565 25.488C136.213 25.104 135.733 24.912 135.125 24.912C134.507 24.912 134.016 25.104 133.653 25.488C133.301 25.8613 133.125 26.4 133.125 27.104V32H130.885V20.16H133.125V24.24C133.413 23.856 133.797 23.5573 134.277 23.344C134.757 23.12 135.291 23.008 135.877 23.008ZM149.703 27.376C149.703 27.696 149.682 27.984 149.639 28.24H143.159C143.213 28.88 143.437 29.3813 143.831 29.744C144.226 30.1067 144.711 30.288 145.287 30.288C146.119 30.288 146.711 29.9307 147.063 29.216H149.479C149.223 30.0693 148.733 30.7733 148.007 31.328C147.282 31.872 146.391 32.144 145.335 32.144C144.482 32.144 143.714 31.9573 143.031 31.584C142.359 31.2 141.831 30.6613 141.447 29.968C141.074 29.2747 140.887 28.4747 140.887 27.568C140.887 26.6507 141.074 25.8453 141.447 25.152C141.821 24.4587 142.343 23.9253 143.015 23.552C143.687 23.1787 144.461 22.992 145.335 22.992C146.178 22.992 146.93 23.1733 147.591 23.536C148.263 23.8987 148.781 24.416 149.143 25.088C149.517 25.7493 149.703 26.512 149.703 27.376ZM147.383 26.736C147.373 26.16 147.165 25.7013 146.759 25.36C146.354 25.008 145.858 24.832 145.271 24.832C144.717 24.832 144.247 25.0027 143.863 25.344C143.49 25.6747 143.261 26.1387 143.175 26.736H147.383ZM153.946 24.976V29.264C153.946 29.5627 154.016 29.7813 154.154 29.92C154.304 30.048 154.549 30.112 154.89 30.112H155.93V32H154.522C152.634 32 151.69 31.0827 151.69 29.248V24.976H150.634V23.136H151.69V20.944H153.946V23.136H155.93V24.976H153.946ZM160.934 32.144C160.208 32.144 159.558 32.016 158.982 31.76C158.406 31.4933 157.947 31.136 157.606 30.688C157.275 30.24 157.094 29.744 157.062 29.2H159.318C159.36 29.5413 159.526 29.824 159.814 30.048C160.112 30.272 160.48 30.384 160.918 30.384C161.344 30.384 161.675 30.2987 161.91 30.128C162.155 29.9573 162.278 29.7387 162.278 29.472C162.278 29.184 162.128 28.9707 161.83 28.832C161.542 28.6827 161.078 28.5227 160.438 28.352C159.776 28.192 159.232 28.0267 158.806 27.856C158.39 27.6853 158.027 27.424 157.718 27.072C157.419 26.72 157.27 26.2453 157.27 25.648C157.27 25.1573 157.408 24.7093 157.686 24.304C157.974 23.8987 158.379 23.5787 158.902 23.344C159.435 23.1093 160.059 22.992 160.774 22.992C161.83 22.992 162.672 23.2587 163.302 23.792C163.931 24.3147 164.278 25.024 164.342 25.92H162.198C162.166 25.568 162.016 25.2907 161.75 25.088C161.494 24.8747 161.147 24.768 160.71 24.768C160.304 24.768 159.99 24.8427 159.766 24.992C159.552 25.1413 159.446 25.3493 159.446 25.616C159.446 25.9147 159.595 26.144 159.894 26.304C160.192 26.4533 160.656 26.608 161.286 26.768C161.926 26.928 162.454 27.0933 162.87 27.264C163.286 27.4347 163.643 27.7013 163.942 28.064C164.251 28.416 164.411 28.8853 164.422 29.472C164.422 29.984 164.278 30.4427 163.99 30.848C163.712 31.2533 163.307 31.5733 162.774 31.808C162.251 32.032 161.638 32.144 160.934 32.144ZM168.5 20.16V32H166.26V20.16H168.5ZM174.649 32.144C173.796 32.144 173.028 31.9573 172.345 31.584C171.663 31.2 171.124 30.6613 170.729 29.968C170.345 29.2747 170.153 28.4747 170.153 27.568C170.153 26.6613 170.351 25.8613 170.745 25.168C171.151 24.4747 171.7 23.9413 172.393 23.568C173.087 23.184 173.86 22.992 174.713 22.992C175.567 22.992 176.34 23.184 177.033 23.568C177.727 23.9413 178.271 24.4747 178.665 25.168C179.071 25.8613 179.273 26.6613 179.273 27.568C179.273 28.4747 179.065 29.2747 178.649 29.968C178.244 30.6613 177.689 31.2 176.985 31.584C176.292 31.9573 175.513 32.144 174.649 32.144ZM174.649 30.192C175.055 30.192 175.433 30.096 175.785 29.904C176.148 29.7013 176.436 29.4027 176.649 29.008C176.863 28.6133 176.969 28.1333 176.969 27.568C176.969 26.7253 176.745 26.08 176.297 25.632C175.86 25.1733 175.321 24.944 174.681 24.944C174.041 24.944 173.503 25.1733 173.065 25.632C172.639 26.08 172.425 26.7253 172.425 27.568C172.425 28.4107 172.633 29.0613 173.049 29.52C173.476 29.968 174.009 30.192 174.649 30.192ZM173.321 21.968C173.023 21.968 172.772 21.8667 172.569 21.664C172.367 21.4613 172.265 21.2107 172.265 20.912C172.265 20.6133 172.367 20.3627 172.569 20.16C172.772 19.9467 173.023 19.84 173.321 19.84C173.62 19.84 173.871 19.9467 174.073 20.16C174.287 20.3627 174.393 20.6133 174.393 20.912C174.393 21.2107 174.287 21.4613 174.073 21.664C173.871 21.8667 173.62 21.968 173.321 21.968ZM176.281 21.968C175.983 21.968 175.732 21.8667 175.529 21.664C175.327 21.4613 175.225 21.2107 175.225 20.912C175.225 20.6133 175.327 20.3627 175.529 20.16C175.732 19.9467 175.983 19.84 176.281 19.84C176.58 19.84 176.831 19.9467 177.033 20.16C177.247 20.3627 177.353 20.6133 177.353 20.912C177.353 21.2107 177.247 21.4613 177.033 21.664C176.831 21.8667 176.58 21.968 176.281 21.968ZM184.981 24.976H183.429V32H181.157V24.976H180.149V23.136H181.157V22.688C181.157 21.6 181.466 20.8 182.085 20.288C182.703 19.776 183.637 19.536 184.885 19.568V21.456C184.341 21.4453 183.962 21.536 183.749 21.728C183.535 21.92 183.429 22.2667 183.429 22.768V23.136H184.981V24.976ZM189.04 24.976V29.264C189.04 29.5627 189.109 29.7813 189.248 29.92C189.397 30.048 189.643 30.112 189.984 30.112H191.024V32H189.616C187.728 32 186.784 31.0827 186.784 29.248V24.976H185.728V23.136H186.784V20.944H189.04V23.136H191.024V24.976H189.04ZM200.875 27.376C200.875 27.696 200.854 27.984 200.811 28.24H194.331C194.385 28.88 194.609 29.3813 195.003 29.744C195.398 30.1067 195.883 30.288 196.459 30.288C197.291 30.288 197.883 29.9307 198.235 29.216H200.651C200.395 30.0693 199.905 30.7733 199.179 31.328C198.454 31.872 197.563 32.144 196.507 32.144C195.654 32.144 194.886 31.9573 194.203 31.584C193.531 31.2 193.003 30.6613 192.619 29.968C192.246 29.2747 192.059 28.4747 192.059 27.568C192.059 26.6507 192.246 25.8453 192.619 25.152C192.993 24.4587 193.515 23.9253 194.187 23.552C194.859 23.1787 195.633 22.992 196.507 22.992C197.35 22.992 198.102 23.1733 198.763 23.536C199.435 23.8987 199.953 24.416 200.315 25.088C200.689 25.7493 200.875 26.512 200.875 27.376ZM198.555 26.736C198.545 26.16 198.337 25.7013 197.931 25.36C197.526 25.008 197.03 24.832 196.443 24.832C195.889 24.832 195.419 25.0027 195.035 25.344C194.662 25.6747 194.433 26.1387 194.347 26.736H198.555Z" fill="#202E55"/>
</svg>
